name rise37.2698peak67.6939fall79.5734.mot
datacolumns 19
datarows 30
range 21.35158800000000 21.39992300000000
endheader
time	ground_force1_vx	ground_force1_vy	ground_force1_vz	ground_force1_px	ground_force1_py	ground_force1_pz	ground_force2_vx	ground_force2_vy	ground_force2_vz	ground_force2_px	ground_force2_py	ground_force2_pz	ground_torque1_x	ground_torque1_y	ground_torque1_z	ground_torque2_x	ground_torque2_y	ground_torque2_z	
21.35158800000000	5.69844900000000	698.46511099999998	36.48152000000000	0.24416800000000	0.00000000000000	0.10652900000000	0.00000000000000	0.00000000000000	0.00000000000000	0.00000000000000	0.00000000000000	0.00000000000000	0.00000000000000	16.35756700000000	0.00000000000000	0.00000000000000	0.00000000000000	0.00000000000000	
21.35325100000000	5.29893500000000	699.28273600000000	36.54044600000000	0.24371500000000	0.00000000000000	0.10651800000000	0.00000000000000	0.00000000000000	0.00000000000000	0.00000000000000	0.00000000000000	0.00000000000000	0.00000000000000	16.45387800000000	0.00000000000000	0.00000000000000	0.00000000000000	0.00000000000000	
21.35491600000000	4.89774000000000	700.16012200000000	36.60602500000000	0.24325600000000	0.00000000000000	0.10650900000000	0.00000000000000	0.00000000000000	0.00000000000000	0.00000000000000	0.00000000000000	0.00000000000000	0.00000000000000	16.55371400000000	0.00000000000000	0.00000000000000	0.00000000000000	0.00000000000000	
21.35660800000000	4.49447900000000	701.09510899999998	36.67788800000000	0.24278900000000	0.00000000000000	0.10650100000000	0.00000000000000	0.00000000000000	0.00000000000000	0.00000000000000	0.00000000000000	0.00000000000000	0.00000000000000	16.65678800000000	0.00000000000000	0.00000000000000	0.00000000000000	0.00000000000000	
21.35825600000000	4.08878900000000	702.08552499999996	36.75565900000000	0.24231000000000	0.00000000000000	0.10649400000000	0.00000000000000	0.00000000000000	0.00000000000000	0.00000000000000	0.00000000000000	0.00000000000000	0.00000000000000	16.76281600000000	0.00000000000000	0.00000000000000	0.00000000000000	0.00000000000000	
21.35992100000000	3.68032700000000	703.12918700000000	36.83896200000000	0.24181800000000	0.00000000000000	0.10648900000000	0.00000000000000	0.00000000000000	0.00000000000000	0.00000000000000	0.00000000000000	0.00000000000000	0.00000000000000	16.87151700000000	0.00000000000000	0.00000000000000	0.00000000000000	0.00000000000000	
21.36158800000000	3.26876900000000	704.22391500000003	36.92741800000000	0.24131000000000	0.00000000000000	0.10648500000000	0.00000000000000	0.00000000000000	0.00000000000000	0.00000000000000	0.00000000000000	0.00000000000000	0.00000000000000	16.98261100000000	0.00000000000000	0.00000000000000	0.00000000000000	0.00000000000000	
21.36325300000000	2.85382000000000	705.36752600000000	37.02065000000000	0.24078400000000	0.00000000000000	0.10648200000000	0.00000000000000	0.00000000000000	0.00000000000000	0.00000000000000	0.00000000000000	0.00000000000000	0.00000000000000	17.09582500000000	0.00000000000000	0.00000000000000	0.00000000000000	0.00000000000000	
21.36492200000000	2.43520800000000	706.55785100000003	37.11828400000000	0.24023800000000	0.00000000000000	0.10648100000000	0.00000000000000	0.00000000000000	0.00000000000000	0.00000000000000	0.00000000000000	0.00000000000000	0.00000000000000	17.21089000000000	0.00000000000000	0.00000000000000	0.00000000000000	0.00000000000000	
21.36660600000000	2.01268800000000	707.79273100000000	37.21994700000000	0.23967000000000	0.00000000000000	0.10648200000000	0.00000000000000	0.00000000000000	0.00000000000000	0.00000000000000	0.00000000000000	0.00000000000000	0.00000000000000	17.32754300000000	0.00000000000000	0.00000000000000	0.00000000000000	0.00000000000000	
21.36825500000000	1.58604200000000	709.07002299999999	37.32527400000000	0.23907800000000	0.00000000000000	0.10648400000000	0.00000000000000	0.00000000000000	0.00000000000000	0.00000000000000	0.00000000000000	0.00000000000000	0.00000000000000	17.44552600000000	0.00000000000000	0.00000000000000	0.00000000000000	0.00000000000000	
21.36992300000000	1.15508200000000	710.38760700000000	37.43390500000000	0.23846200000000	0.00000000000000	0.10648800000000	0.00000000000000	0.00000000000000	0.00000000000000	0.00000000000000	0.00000000000000	0.00000000000000	0.00000000000000	17.56459300000000	0.00000000000000	0.00000000000000	0.00000000000000	0.00000000000000	
21.37159100000000	0.71965000000000	711.74338799999998	37.54549000000000	0.23781900000000	0.00000000000000	0.10649400000000	0.00000000000000	0.00000000000000	0.00000000000000	0.00000000000000	0.00000000000000	0.00000000000000	0.00000000000000	17.68450200000000	0.00000000000000	0.00000000000000	0.00000000000000	0.00000000000000	
21.37325600000000	0.27961900000000	713.13530000000003	37.65968600000000	0.23715000000000	0.00000000000000	0.10650100000000	0.00000000000000	0.00000000000000	0.00000000000000	0.00000000000000	0.00000000000000	0.00000000000000	0.00000000000000	17.80502300000000	0.00000000000000	0.00000000000000	0.00000000000000	0.00000000000000	
21.37491600000000	-0.16510900000000	714.56130800000005	37.77616500000000	0.23645300000000	0.00000000000000	0.10650900000000	0.00000000000000	0.00000000000000	0.00000000000000	0.00000000000000	0.00000000000000	0.00000000000000	0.00000000000000	17.92593500000000	0.00000000000000	0.00000000000000	0.00000000000000	0.00000000000000	
21.37659300000000	-0.61459900000000	716.01941099999999	37.89460800000000	0.23572900000000	0.00000000000000	0.10652000000000	0.00000000000000	0.00000000000000	0.00000000000000	0.00000000000000	0.00000000000000	0.00000000000000	0.00000000000000	18.04702600000000	0.00000000000000	0.00000000000000	0.00000000000000	0.00000000000000	
21.37825300000000	-1.06888500000000	717.50764800000002	38.01471200000000	0.23497600000000	0.00000000000000	0.10653200000000	0.00000000000000	0.00000000000000	0.00000000000000	0.00000000000000	0.00000000000000	0.00000000000000	0.00000000000000	18.16809800000000	0.00000000000000	0.00000000000000	0.00000000000000	0.00000000000000	
21.37992300000000	-1.52796900000000	719.02409599999999	38.13619000000000	0.23419500000000	0.00000000000000	0.10654500000000	0.00000000000000	0.00000000000000	0.00000000000000	0.00000000000000	0.00000000000000	0.00000000000000	0.00000000000000	18.28896100000000	0.00000000000000	0.00000000000000	0.00000000000000	0.00000000000000	
21.38158900000000	-1.99182300000000	720.56687499999998	38.25877100000000	0.23338700000000	0.00000000000000	0.10656000000000	0.00000000000000	0.00000000000000	0.00000000000000	0.00000000000000	0.00000000000000	0.00000000000000	0.00000000000000	18.40943800000000	0.00000000000000	0.00000000000000	0.00000000000000	0.00000000000000	
21.38325500000000	-2.46038600000000	722.13414799999998	38.38220000000000	0.23255100000000	0.00000000000000	0.10657600000000	0.00000000000000	0.00000000000000	0.00000000000000	0.00000000000000	0.00000000000000	0.00000000000000	0.00000000000000	18.52936600000000	0.00000000000000	0.00000000000000	0.00000000000000	0.00000000000000	
21.38491700000000	-2.93356700000000	723.72412499999996	38.50624300000000	0.23168800000000	0.00000000000000	0.10659300000000	0.00000000000000	0.00000000000000	0.00000000000000	0.00000000000000	0.00000000000000	0.00000000000000	0.00000000000000	18.64859000000000	0.00000000000000	0.00000000000000	0.00000000000000	0.00000000000000	
21.38659600000000	-3.41124600000000	725.33506199999999	38.63068600000000	0.23079800000000	0.00000000000000	0.10661100000000	0.00000000000000	0.00000000000000	0.00000000000000	0.00000000000000	0.00000000000000	0.00000000000000	0.00000000000000	18.76697100000000	0.00000000000000	0.00000000000000	0.00000000000000	0.00000000000000	
21.38824900000000	-3.89327300000000	726.96526400000005	38.75533600000000	0.22988400000000	0.00000000000000	0.10663100000000	0.00000000000000	0.00000000000000	0.00000000000000	0.00000000000000	0.00000000000000	0.00000000000000	0.00000000000000	18.88438100000000	0.00000000000000	0.00000000000000	0.00000000000000	0.00000000000000	
21.38991600000000	-4.37947200000000	728.61308599999995	38.88002000000000	0.22894600000000	0.00000000000000	0.10665100000000	0.00000000000000	0.00000000000000	0.00000000000000	0.00000000000000	0.00000000000000	0.00000000000000	0.00000000000000	19.00070300000000	0.00000000000000	0.00000000000000	0.00000000000000	0.00000000000000	
21.39158300000000	-4.86963700000000	730.27692999999999	39.00458800000000	0.22798500000000	0.00000000000000	0.10667300000000	0.00000000000000	0.00000000000000	0.00000000000000	0.00000000000000	0.00000000000000	0.00000000000000	0.00000000000000	19.11583500000000	0.00000000000000	0.00000000000000	0.00000000000000	0.00000000000000	
21.39325600000000	-5.36353800000000	731.95525299999997	39.12891600000000	0.22700300000000	0.00000000000000	0.10669500000000	0.00000000000000	0.00000000000000	0.00000000000000	0.00000000000000	0.00000000000000	0.00000000000000	0.00000000000000	19.22968600000000	0.00000000000000	0.00000000000000	0.00000000000000	0.00000000000000	
21.39492100000000	-5.86092100000000	733.64655800000003	39.25289900000000	0.22600100000000	0.00000000000000	0.10671700000000	0.00000000000000	0.00000000000000	0.00000000000000	0.00000000000000	0.00000000000000	0.00000000000000	0.00000000000000	19.34217500000000	0.00000000000000	0.00000000000000	0.00000000000000	0.00000000000000	
21.39659600000000	-6.36150900000000	735.34940300000005	39.37645900000000	0.22498100000000	0.00000000000000	0.10674000000000	0.00000000000000	0.00000000000000	0.00000000000000	0.00000000000000	0.00000000000000	0.00000000000000	0.00000000000000	19.45323500000000	0.00000000000000	0.00000000000000	0.00000000000000	0.00000000000000	
21.39825400000000	-6.86500200000000	737.06239300000004	39.49954200000000	0.22394500000000	0.00000000000000	0.10676300000000	0.00000000000000	0.00000000000000	0.00000000000000	0.00000000000000	0.00000000000000	0.00000000000000	0.00000000000000	19.56280900000000	0.00000000000000	0.00000000000000	0.00000000000000	0.00000000000000	
21.39992300000000	-7.37108500000000	738.78418599999998	39.62211700000000	0.22289500000000	0.00000000000000	0.10678700000000	0.00000000000000	0.00000000000000	0.00000000000000	0.00000000000000	0.00000000000000	0.00000000000000	0.00000000000000	19.67085000000000	0.00000000000000	0.00000000000000	0.00000000000000	0.00000000000000	
